<svg xmlns="http://www.w3.org/2000/svg" viewBox="0 0 512 332"><defs><style>.cls-1{fill:#d9d9d9;}</style></defs><title>arrow-new</title><g id="Слой_2" data-name="Слой 2"><g id="Слой_1-2" data-name="Слой 1"><path class="cls-1" d="M430.14,165.76l-94.9,89.77-27.49-29.06,64.1-60.63L307.8,105.57l27.41-29.13ZM392,0H120A120.14,120.14,0,0,0,0,120v92A120.14,120.14,0,0,0,120,332H392A120.14,120.14,0,0,0,512,212V120A120.14,120.14,0,0,0,392,0ZM40,120a80.09,80.09,0,0,1,80-80H392a80.09,80.09,0,0,1,80,80v92a80.09,80.09,0,0,1-80,80H120a80.09,80.09,0,0,1-80-80Zm41,46a20,20,0,1,0,20-20A20,20,0,0,0,81,166Zm80,0a20,20,0,1,0,20-20A20,20,0,0,0,161,166Zm80,0a20,20,0,1,0,20-20A20,20,0,0,0,241,166Z"/></g></g></svg>