<svg xmlns="http://www.w3.org/2000/svg" xmlns:xlink="http://www.w3.org/1999/xlink" viewBox="0 0 513.48 513.58"><defs><style>.cls-1{fill:url(#Безымянный_градиент);}.cls-2{fill:#fff;}</style><linearGradient id="Безымянный_градиент" x1="-163.31" y1="1000.52" x2="-152.76" y2="1011.86" gradientTransform="translate(-39324.78 -6425.02) rotate(-90) scale(42.28 39.34)" gradientUnits="userSpaceOnUse"><stop offset="0" stop-color="#fd5"/><stop offset="0.5" stop-color="#ff543e"/><stop offset="1" stop-color="#c837ab"/></linearGradient></defs><title>instagram</title><g id="Слой_2" data-name="Слой 2"><g id="Слой_1-2" data-name="Слой 1"><path class="cls-1" d="M33.49,35.66c-40.23,41.79-32,86.19-32,221.06C1.49,368.71-18,481,84.22,507.42c31.94,8.21,314.9,8.21,346.79,0,42.58-11,77.23-45.53,82-105.75.66-8.41.66-281.28,0-289.86-5-64.15-44.52-101.12-96.55-108.61C404.48,1.44,402.09.93,340.91.82,123.88.93,76.31-8.74,33.49,35.66Z"/><path class="cls-2" d="M257.45,67.78c-77.46,0-151-6.89-179.11,65.22-11.61,29.78-9.92,68.46-9.92,123.84,0,48.6-1.56,94.27,9.92,123.82,28,72.15,102.19,65.24,179.07,65.24,74.18,0,150.66,7.72,179.09-65.24,11.63-30.08,9.92-68.18,9.92-123.82,0-73.86,4.07-121.54-31.74-157.33-36.27-36.27-85.31-31.72-157.31-31.72Zm-16.94,34.07c161.58-.26,182.14-18.22,170.79,231.32-4,88.26-71.23,78.57-153.83,78.57-150.61,0-154.94-4.31-154.94-155,0-152.43,11.95-154.82,138-154.94Zm117.85,31.38A22.68,22.68,0,1,0,381,155.91,22.68,22.68,0,0,0,358.36,133.23ZM257.45,159.75a97.08,97.08,0,1,0,97,97.09,97.08,97.08,0,0,0-97-97.09Zm0,34.07c83.31,0,83.41,126,0,126S174,193.82,257.45,193.82Z"/></g></g></svg>