<svg xmlns="http://www.w3.org/2000/svg" viewBox="0 0 460.86 512"><defs><style>.cls-1{fill:#665cac;}.cls-2{fill:#523494;}.cls-3{fill:#fff;}.cls-4{fill:#e5e5e5;}</style></defs><title>viber</title><g id="Слой_2" data-name="Слой 2"><g id="Layer_1" data-name="Layer 1"><path class="cls-1" d="M281.64,0H179.22C80.4,0,0,80.4,0,179.22V256A179.3,179.3,0,0,0,102.41,418v85.54c0,7.43,9.29,11.31,14.57,6l74.31-74.31h90.34c98.82,0,179.22-80.4,179.22-179.22V179.22C460.86,80.4,380.46,0,281.64,0Z"/><path class="cls-2" d="M128,418A179.3,179.3,0,0,1,25.6,256V179.22C25.6,80.4,106,0,204.83,0h-25.6C80.4,0,0,80.4,0,179.22V256A179.3,179.3,0,0,0,102.41,418v85.54c0,7.43,9.29,11.31,14.57,6l11-11Z"/><path class="cls-3" d="M359.28,318.1l-7.67-41.57a8.54,8.54,0,0,0-6.72-6.82l-60.35-12.07a8.54,8.54,0,0,0-7.71,2.33L252.31,284.5C211,266,188.08,243,167.91,199.93l24.44-24.44a8.54,8.54,0,0,0,2.33-7.71l-12.07-60.35a8.54,8.54,0,0,0-6.82-6.72L134.22,93a8.55,8.55,0,0,0-3.44.07,59.55,59.55,0,0,0-29,16c-13.8,13.8-19.08,33.94-15.25,58.24C93,208.16,113,264.95,149.87,302l.5.5c37,36.86,93.79,56.85,134.6,63.27A95.4,95.4,0,0,0,299.81,367c17.7,0,32.52-5.58,43.4-16.46a59.57,59.57,0,0,0,16-29A8.61,8.61,0,0,0,359.28,318.1Z"/><polygon class="cls-4" points="184 183.84 192.34 175.49 192.35 175.49 184 183.84 184 183.84"/><rect class="cls-4" x="266.66" y="264.18" width="11.92" transform="translate(-106.96 270.15) rotate(-45)"/><path class="cls-4" d="M315.9,350.87a95.4,95.4,0,0,1-14.84-1.21c-40.81-6.42-97.6-26.41-134.6-63.27l-.5-.5c-36.88-37-56.88-93.82-63.3-134.63-3.09-19.63-.23-36.55,8.26-49.6a59.76,59.76,0,0,0-9.1,7.45c-13.8,13.8-19.08,33.94-15.25,58.24C93,208.16,113,264.95,149.86,302l.5.5c37,36.86,93.79,56.85,134.6,63.27A95.4,95.4,0,0,0,299.81,367c17.7,0,32.52-5.58,43.4-16.46a59.8,59.8,0,0,0,7.45-9.1C341,347.67,329.29,350.87,315.9,350.87Z"/><path class="cls-3" d="M247.5,145.09a8.53,8.53,0,0,0,0,17.07,34.18,34.18,0,0,1,34.14,34.14,8.53,8.53,0,0,0,17.07,0A51.26,51.26,0,0,0,247.5,145.09Z"/><path class="cls-3" d="M247.5,110.95a86.73,86.73,0,0,0-9.47.52,8.54,8.54,0,1,0,1.87,17,69.48,69.48,0,0,1,7.6-.42,68.35,68.35,0,0,1,68.27,68.27,69.48,69.48,0,0,1-.42,7.6,8.54,8.54,0,0,0,17,1.87,86.73,86.73,0,0,0,.52-9.47A85.44,85.44,0,0,0,247.5,110.95Z"/><path class="cls-3" d="M247.5,76.81c-3,0-6.14.12-9.18.35a8.53,8.53,0,1,0,1.29,17c2.61-.2,5.27-.3,7.89-.3a102.51,102.51,0,0,1,99.67,126.05,8.53,8.53,0,0,0,16.61,3.93,119.58,119.58,0,0,0-116.28-147Z"/></g></g></svg>