<svg xmlns="http://www.w3.org/2000/svg" viewBox="0 0 512 512"><defs><style>.cls-1{fill:#fff;}</style></defs><title>view</title><g id="Слой_2" data-name="Слой 2"><g id="Слой_1-2" data-name="Слой 1"><path class="cls-1" d="M484.1,263.84l4.8-7.84-4.8-7.84c-.8-1.31-20.12-32.48-57.64-63.72-49.9-41.54-108.69-63.5-170-63.5S136.21,142.89,86,184.41c-37.73,31.22-57.27,62.37-58.08,63.68L23,256l4.9,7.91c.81,1.31,20.34,32.46,58.08,63.68,50.19,41.52,109.12,63.47,170.43,63.47s120.11-22,170-63.5C464,296.32,483.3,265.15,484.1,263.84Zm-77.63,41.32c-44.89,37.09-95.37,55.9-150,55.9s-105.32-18.82-150.51-55.93A283.06,283.06,0,0,1,59,256a283.08,283.08,0,0,1,47-49.13c45.2-37.11,95.83-55.93,150.51-55.93s105.13,18.81,150,55.9A279.38,279.38,0,0,1,453.11,256,279.43,279.43,0,0,1,406.47,305.16Z"/><path class="cls-1" d="M256,165.87A90.13,90.13,0,1,0,346.13,256,90.24,90.24,0,0,0,256,165.87Zm0,150.27A60.13,60.13,0,1,1,316.13,256,60.2,60.2,0,0,1,256,316.13Z"/><path class="cls-1" d="M30,30H92.63V0H0V91.5H30Z"/><path class="cls-1" d="M419.38,0V30H482V91.5h30V0Z"/><path class="cls-1" d="M30,420.5H0V512H92.63V482H30Z"/><path class="cls-1" d="M482,482H419.38v30H512V420.5H482Z"/></g></g></svg>