<svg xmlns="http://www.w3.org/2000/svg" viewBox="0 0 512.01 512"><defs><style>.cls-1{fill:#eceff1;}.cls-2{fill:#4caf50;}.cls-3{fill:#fafafa;}</style></defs><title>whatsapp</title><g id="Слой_2" data-name="Слой 2"><g id="Слой_1-2" data-name="Слой 1"><path class="cls-1" d="M437.76,73.58C389.12,26.56,325.12,0,257,0,61.33,0-61.5,211.95,36.18,380.54L0,512l135.15-35.24c58.88,31.81,107.11,29,121.94,30.87,226.84,0,339.75-274.43,180.35-433.22Z"/><path class="cls-2" d="M257.43,464l-.13,0H257c-67.88,0-111.25-32.15-115.52-34l-80,20.8L82.88,373l-5.1-8A210.53,210.53,0,0,1,45.44,252.82C45.44,65.24,274.67-28.57,407.32,104,539.65,235.22,446.74,464,257.43,464Z"/><path class="cls-3" d="M373.48,305.22l-.19,1.6c-6.42-3.2-37.7-18.5-43.52-20.61-13.08-4.84-9.39-.77-34.5,28-3.73,4.16-7.45,4.48-13.78,1.6-6.4-3.2-26.94-9.92-51.26-31.68-18.94-17-31.66-37.76-35.41-44.16-6.25-10.79,6.83-12.33,18.73-34.86,2.13-4.48,1-8-.53-11.18s-14.34-34.56-19.67-47.06C188.22,134.4,183,136,179,136c-12.29-1.07-21.27-.9-29.18,7.34-34.43,37.85-25.75,76.89,3.71,118.4,57.9,75.78,88.75,89.73,145.15,109.1,15.23,4.84,29.12,4.16,40.11,2.58,12.25-1.94,37.7-15.38,43-30.42s5.44-27.52,3.84-30.4-5.76-4.48-12.16-7.36Z"/></g></g></svg>